<svg width="62" height="36" viewBox="0 0 62 36" fill="none" xmlns="http://www.w3.org/2000/svg">
<g clip-path="url(#clip0_630_6886)">
<path d="M49.9839 6.00869H37.9517C34.6291 6.00869 31.9356 8.69401 31.9356 12.0065V24.0022C31.9356 27.3147 34.6291 30 37.9517 30H49.9839C53.3065 30 56 27.3147 56 24.0022V12.0065C56 8.69401 53.3065 6.00869 49.9839 6.00869Z" fill="url(#paint0_linear_630_6886)"/>
<path d="M44.8602 26.0015C44.6235 26.0015 44.3965 25.9077 44.2292 25.7409C44.0618 25.574 43.9678 25.3478 43.9678 25.1118C43.9678 24.8758 44.0618 24.6495 44.2292 24.4827C44.3965 24.3159 44.6235 24.2221 44.8602 24.2221H50.2145V11.7866H44.8602C44.6835 11.7869 44.5107 11.7349 44.3637 11.6371C44.2167 11.5394 44.1021 11.4003 44.0344 11.2376C43.9668 11.0749 43.9491 10.8958 43.9837 10.723C44.0182 10.5503 44.1034 10.3916 44.2285 10.2672C44.3105 10.1832 44.4088 10.1169 44.5174 10.0722C44.626 10.0275 44.7427 10.0054 44.8602 10.0073H50.2145C50.4481 10.0031 50.68 10.0471 50.8957 10.1366C51.1114 10.226 51.3062 10.359 51.4679 10.5271C51.6368 10.6902 51.7702 10.8861 51.8599 11.1028C51.9496 11.3195 51.9936 11.5523 51.9893 11.7866V24.2221C51.9936 24.4565 51.9496 24.6892 51.8599 24.9059C51.7702 25.1226 51.6368 25.3186 51.4679 25.4817C51.3062 25.6498 51.1114 25.7827 50.8957 25.8722C50.68 25.9616 50.4481 26.0056 50.2145 26.0015H44.8602ZM43.2358 18.8941H36.8387C36.7215 18.8941 36.6055 18.871 36.4972 18.8263C36.3889 18.7816 36.2906 18.7161 36.2077 18.6335C36.1248 18.5509 36.0591 18.4528 36.0143 18.3448C35.9694 18.2369 35.9463 18.1212 35.9463 18.0044C35.9463 17.8875 35.9694 17.7718 36.0143 17.6639C36.0591 17.556 36.1248 17.4579 36.2077 17.3753C36.2906 17.2927 36.3889 17.2271 36.4972 17.1824C36.6055 17.1377 36.7215 17.1147 36.8387 17.1147H43.2358L41.5614 15.4453C41.4821 15.3671 41.4198 15.2736 41.3784 15.1704C41.337 15.0672 41.3174 14.9566 41.3207 14.8455C41.3196 14.6161 41.4056 14.3947 41.5614 14.2257C41.6437 14.1402 41.7426 14.0721 41.852 14.0256C41.9614 13.9791 42.0791 13.9551 42.1981 13.9551C42.317 13.9551 42.4347 13.9791 42.5441 14.0256C42.6536 14.0721 42.7524 14.1402 42.8348 14.2257L46.0233 17.4046C46.1083 17.4841 46.176 17.5801 46.2223 17.6867C46.2687 17.7933 46.2926 17.9082 46.2926 18.0244C46.2926 18.1405 46.2687 18.2555 46.2223 18.3621C46.176 18.4687 46.1083 18.5647 46.0233 18.6441L42.8348 21.803C42.7532 21.8874 42.6549 21.9541 42.5462 21.9988C42.4375 22.0436 42.3206 22.0654 42.2031 22.0629C41.9606 22.0573 41.73 21.9568 41.5614 21.783C41.4035 21.613 41.3158 21.3899 41.3158 21.1582C41.3158 20.9266 41.4035 20.7035 41.5614 20.5335L43.2358 18.8941Z" fill="white"/>
<path d="M24.5055 17.1047V19.2039H26.5811C27.5483 19.2013 28.4751 18.8171 29.1589 18.1353C29.8428 17.4535 30.2282 16.5295 30.2309 15.5653V9.84733H28.1653V15.5653C28.1653 15.9656 28.0058 16.3495 27.7219 16.6326C27.4379 16.9157 27.0528 17.0747 26.6513 17.0747H24.5356L24.5055 17.1047Z" fill="url(#paint1_linear_630_6886)"/>
<path d="M24.5356 15.5652V6.19863H26.541V15.5652H24.5356Z" fill="url(#paint2_linear_630_6886)"/>
<path fill-rule="evenodd" clip-rule="evenodd" d="M8.16174 24.6534C8.16174 25.9919 8.70294 27.2755 9.66627 28.222C10.6296 29.1684 11.9362 29.7001 13.2985 29.7001C14.6692 29.7003 15.9851 29.1714 16.9626 28.2274C17.9401 27.2834 18.5009 25.9998 18.5242 24.6534V24.1876H20.0258V24.7505C20.0389 25.5561 20.3772 26.3237 20.9663 26.8842C21.5554 27.4448 22.3471 27.7525 23.1671 27.7397C23.9871 27.7268 24.7684 27.3944 25.339 26.8156C25.9096 26.2368 26.2228 25.4591 26.2097 24.6534V20.616H24.1352C23.4997 21.3446 22.6512 21.8631 21.7051 22.1009H18.4946V20.616H16.4201V25.1581C16.4171 25.4924 16.3352 25.8215 16.1809 26.1196C16.0267 26.4176 15.8042 26.6765 15.5311 26.8759C14.9081 27.3508 14.1461 27.6162 13.3578 27.6329C12.9562 27.6358 12.5581 27.56 12.1866 27.4101C11.8152 27.2601 11.4779 27.0389 11.1944 26.7594C10.9061 26.4877 10.6766 26.1615 10.5199 25.8004C10.3632 25.4393 10.2824 25.0508 10.2824 24.6583C10.2824 24.2657 10.3632 23.8772 10.5199 23.5161C10.6766 23.155 10.9061 22.8288 11.1944 22.5571L12.6268 21.1498L11.1944 19.7037H11.1253L9.6929 21.111C8.73343 22.0515 8.18427 23.322 8.16174 24.6534ZM24.0265 22.9065V24.6534C24.0265 24.9108 23.9224 25.1577 23.7372 25.3397C23.5519 25.5217 23.3007 25.6239 23.0387 25.6239C22.7767 25.6239 22.5254 25.5217 22.3402 25.3397C22.1549 25.1577 22.0508 24.9108 22.0508 24.6534V24.0614C22.7838 23.8153 23.4567 23.422 24.0265 22.9065Z" fill="url(#paint3_linear_630_6886)"/>
<path d="M13.812 25.2217L12.303 23.7423V23.6723L13.7817 22.2228H13.8424L15.311 23.6723V23.7423L13.812 25.2217Z" fill="url(#paint4_linear_630_6886)"/>
<path d="M19.7429 19.004C20.8156 18.9914 21.8879 19.0548 22.9515 19.1939L23.0618 18.1443V17.0747C22.0003 16.9144 20.9263 16.8508 19.8532 16.8848C18.7726 16.8632 17.6922 16.9368 16.6246 17.1047V19.2039C17.6561 19.0461 18.6996 18.9792 19.7429 19.004Z" fill="url(#paint5_linear_630_6886)"/>
<path d="M18.4795 8.29788C17.4181 8.17381 16.3495 8.12038 15.2809 8.13794C14.208 8.11102 13.1346 8.17456 12.0724 8.32787V6.23862C13.1423 6.06138 14.2266 5.9844 15.311 6.00871C16.3841 5.97513 17.458 6.0387 18.5196 6.19864V7.26825L18.4795 8.29788Z" fill="url(#paint6_linear_630_6886)"/>
<path d="M0 15.8071C0 17.2356 0.554423 18.6056 1.5413 19.6156C2.52818 20.6257 3.86668 21.1932 5.26233 21.1932C6.65623 21.1881 7.99406 20.6308 8.99527 19.6381C9.97425 18.6313 10.5241 17.2688 10.5247 15.8483V14.6125L12.4767 15.6423C12.8646 15.8136 13.2818 15.9046 13.7042 15.9101H17.246V14.6434L19.2583 15.6114C19.6462 15.7828 20.0634 15.8738 20.4859 15.8792H21.4317C21.6447 15.8847 21.8566 15.8464 22.0548 15.7664C22.253 15.6865 22.4335 15.5666 22.5855 15.4138C22.7376 15.2611 22.8581 15.0786 22.9399 14.8773C23.0217 14.6759 23.0631 14.4598 23.0617 14.2417V9.95757H20.9487V13.6856H20.5261C20.113 13.6835 19.7051 13.5923 19.3288 13.4179L17.3164 12.4498V9.95757H15.2034V13.6856H13.7444C13.3282 13.6825 12.9172 13.5914 12.537 13.4179L10.5247 12.4498V6.19863H8.44187V15.8071C8.44187 16.6538 8.11324 17.4658 7.52829 18.0646C6.94333 18.6633 6.14996 18.9996 5.3227 18.9996C4.49545 18.9996 3.70208 18.6633 3.11712 18.0646C2.53216 17.4658 2.20354 16.6538 2.20354 15.8071C2.24311 15.2048 2.43371 14.6231 2.75694 14.1181C2.05381 13.9227 1.42337 13.5176 0.945811 12.9544H0.875379C0.332252 13.8045 0.0293024 14.7918 0 15.8071Z" fill="url(#paint7_linear_630_6886)"/>
</g>
<defs>
<linearGradient id="paint0_linear_630_6886" x1="28" y1="6" x2="28" y2="30" gradientUnits="userSpaceOnUse">
<stop stop-color="#E3338B"/>
<stop offset="1" stop-color="#A24682"/>
</linearGradient>
<linearGradient id="paint1_linear_630_6886" x1="28.1471" y1="-33.4359" x2="28.1471" y2="103.923" gradientUnits="userSpaceOnUse">
<stop stop-color="#E3338B"/>
<stop offset="1" stop-color="#A24682"/>
</linearGradient>
<linearGradient id="paint2_linear_630_6886" x1="27.8647" y1="-24.0448" x2="27.8647" y2="113.168" gradientUnits="userSpaceOnUse">
<stop stop-color="#E3338B"/>
<stop offset="1" stop-color="#A24682"/>
</linearGradient>
<linearGradient id="paint3_linear_630_6886" x1="28.0147" y1="-19.165" x2="28.0147" y2="105.682" gradientUnits="userSpaceOnUse">
<stop stop-color="#E3338B"/>
<stop offset="1" stop-color="#A24682"/>
</linearGradient>
<linearGradient id="paint4_linear_630_6886" x1="28.0943" y1="-100.56" x2="28.0943" y2="328.08" gradientUnits="userSpaceOnUse">
<stop stop-color="#E3338B"/>
<stop offset="1" stop-color="#A24682"/>
</linearGradient>
<linearGradient id="paint5_linear_630_6886" x1="27.3894" y1="-224.956" x2="27.3894" y2="327.105" gradientUnits="userSpaceOnUse">
<stop stop-color="#E3338B"/>
<stop offset="1" stop-color="#A24682"/>
</linearGradient>
<linearGradient id="paint6_linear_630_6886" x1="28.1306" y1="-112.843" x2="28.1306" y2="439.257" gradientUnits="userSpaceOnUse">
<stop stop-color="#E3338B"/>
<stop offset="1" stop-color="#A24682"/>
</linearGradient>
<linearGradient id="paint7_linear_630_6886" x1="11.5308" y1="-5.88147" x2="11.5308" y2="49.2874" gradientUnits="userSpaceOnUse">
<stop stop-color="#E3338B"/>
<stop offset="1" stop-color="#A24682"/>
</linearGradient>
<clipPath id="clip0_630_6886">
<rect width="56" height="24" fill="white" transform="translate(0 6)"/>
</clipPath>
</defs>
</svg>